<svg width="453" height="349" viewBox="0 0 453 349" fill="none" xmlns="http://www.w3.org/2000/svg">
<path d="M202.999 49C190.82 49 180.911 58.9094 180.911 71.0896C180.911 74.2666 181.561 77.3 182.842 80.1062C188.365 92.1912 198.954 104.95 202.068 108.573C202.302 108.843 202.642 108.999 203 108.999C203.358 108.999 203.698 108.843 203.931 108.573C207.044 104.951 217.633 92.1924 223.157 80.1062C224.44 77.3 225.089 74.2666 225.089 71.0896C225.088 58.9094 215.179 49 202.999 49ZM202.999 82.563C196.673 82.563 191.525 77.4155 191.525 71.089C191.525 64.7619 196.673 59.6144 202.999 59.6144C209.326 59.6144 214.473 64.7619 214.473 71.089C214.474 77.4155 209.326 82.563 202.999 82.563Z" fill="white"/>
<path d="M317.999 109.9C306.317 109.9 296.811 119.406 296.811 131.09C296.811 134.141 297.435 137.047 298.661 139.732C304.126 151.69 314.636 164.364 317.75 167.985C317.812 168.057 317.903 168.099 318 168.099C318.096 168.099 318.187 168.058 318.249 167.986C321.361 164.365 331.873 151.691 337.339 139.732C338.566 137.047 339.189 134.142 339.189 131.09L317.999 109.9ZM317.999 109.9C329.681 109.9 339.188 119.406 339.189 131.09L317.999 109.9ZM317.999 143.463C311.176 143.463 305.625 137.913 305.625 131.089C305.625 124.265 311.175 118.714 317.999 118.714C324.823 118.714 330.373 124.265 330.373 131.089L317.999 143.463ZM317.999 143.463C324.823 143.463 330.374 137.913 330.373 131.089L317.999 143.463Z" stroke="white" stroke-width="1.8"/>
<path d="M210.999 289.9C199.317 289.9 189.811 299.406 189.811 311.09C189.811 314.141 190.435 317.047 191.661 319.732C197.126 331.69 207.636 344.364 210.75 347.985C210.812 348.057 210.903 348.099 211 348.099C211.096 348.099 211.187 348.058 211.249 347.986C214.361 344.365 224.873 331.691 230.339 319.732C231.566 317.047 232.189 314.142 232.189 311.09L210.999 289.9ZM210.999 289.9C222.681 289.9 232.188 299.406 232.189 311.09L210.999 289.9ZM210.999 323.463C204.176 323.463 198.625 317.913 198.625 311.089C198.625 304.265 204.175 298.714 210.999 298.714C217.823 298.714 223.373 304.265 223.373 311.089L210.999 323.463ZM210.999 323.463C217.823 323.463 223.374 317.913 223.373 311.089L210.999 323.463Z" stroke="white" stroke-width="1.8"/>
<path d="M29.9991 26.9C18.3172 26.9 8.81071 36.4065 8.81071 48.0896C8.81071 51.1415 9.43482 54.047 10.6612 56.7323C16.1255 68.6895 26.6362 81.3636 29.75 84.9851C29.8123 85.0574 29.9035 85.0994 29.9997 85.0994C30.0956 85.0994 30.1866 85.0576 30.2489 84.9857C33.361 81.3653 43.8725 68.6911 49.3389 56.732C50.5657 54.0469 51.1893 51.1416 51.1893 48.0897L29.9991 26.9ZM29.9991 26.9C41.6815 26.9 51.188 36.4064 51.1893 48.0896L29.9991 26.9ZM29.9991 60.463C23.1755 60.463 17.6251 54.9125 17.6251 48.089C17.6251 41.2648 23.1755 35.7144 29.9991 35.7144C36.8226 35.7144 42.373 41.2648 42.3731 48.0889L29.9991 60.463ZM29.9991 60.463C36.8231 60.463 42.3737 54.9126 42.3731 48.089L29.9991 60.463Z" stroke="white" stroke-width="1.8"/>
<path d="M422.999 238.9C411.317 238.9 401.811 248.406 401.811 260.09C401.811 263.141 402.435 266.047 403.661 268.732C409.126 280.69 419.636 293.364 422.75 296.985C422.812 297.057 422.903 297.099 423 297.099C423.096 297.099 423.187 297.058 423.249 296.986C426.361 293.365 436.873 280.691 442.339 268.732C443.566 266.047 444.189 263.142 444.189 260.09L422.999 238.9ZM422.999 238.9C434.681 238.9 444.188 248.406 444.189 260.09L422.999 238.9ZM422.999 272.463C416.176 272.463 410.625 266.913 410.625 260.089C410.625 253.265 416.175 247.714 422.999 247.714C429.823 247.714 435.373 253.265 435.373 260.089L422.999 272.463ZM422.999 272.463C429.823 272.463 435.374 266.913 435.373 260.089L422.999 272.463Z" stroke="white" stroke-width="1.8"/>
<rect x="221" width="134" height="43" rx="2" fill="#676767" fill-opacity="0.58"/>
<path d="M232.908 32.14L234.636 28.126L231.144 20.656H231.972L235.05 27.19L237.732 20.656H238.56L233.736 32.14H232.908ZM245.143 20.656V28H244.423V21.34H241.039V25.588C241.039 26.392 240.895 26.986 240.607 27.37C240.283 27.814 239.815 28.036 239.203 28.036C239.131 28.036 239.011 28.024 238.843 28V27.316C238.963 27.34 239.053 27.352 239.113 27.352C239.521 27.352 239.839 27.19 240.067 26.866C240.235 26.602 240.319 26.176 240.319 25.588V20.656H245.143ZM247.766 27.946C247.646 27.814 247.586 27.652 247.586 27.46C247.586 27.268 247.646 27.112 247.766 26.992C247.898 26.86 248.06 26.794 248.252 26.794C248.444 26.794 248.6 26.86 248.72 26.992C248.852 27.112 248.918 27.268 248.918 27.46C248.918 27.652 248.852 27.814 248.72 27.946C248.6 28.066 248.444 28.126 248.252 28.126C248.06 28.126 247.898 28.066 247.766 27.946ZM261.545 16.714H258.431V28H257.639V16.714H254.525V15.994H261.545V16.714ZM262.021 20.656H264.415C265.099 20.656 265.621 20.8 265.981 21.088C266.413 21.436 266.629 21.904 266.629 22.492C266.629 23.164 266.359 23.674 265.819 24.022C266.155 24.07 266.455 24.208 266.719 24.436C267.139 24.808 267.349 25.3 267.349 25.912C267.349 26.596 267.103 27.124 266.611 27.496C266.179 27.832 265.579 28 264.811 28H262.021V20.656ZM262.741 23.86H264.415C264.859 23.86 265.207 23.758 265.459 23.554C265.759 23.314 265.909 22.99 265.909 22.582C265.909 22.186 265.759 21.868 265.459 21.628C265.219 21.436 264.871 21.34 264.415 21.34H262.741V23.86ZM262.741 27.316H264.811C265.363 27.316 265.783 27.208 266.071 26.992C266.419 26.728 266.593 26.362 266.593 25.894C266.593 25.462 266.431 25.12 266.107 24.868C265.819 24.652 265.387 24.544 264.811 24.544H262.741V27.316ZM276.044 24.418H269.762C269.762 25.33 270.044 26.074 270.608 26.65C271.184 27.226 271.874 27.514 272.678 27.514C273.254 27.514 273.764 27.364 274.208 27.064C274.652 26.752 274.994 26.344 275.234 25.84L275.846 26.2C275.57 26.728 275.168 27.196 274.64 27.604C274.112 28 273.44 28.198 272.624 28.198C271.508 28.198 270.626 27.838 269.978 27.118C269.33 26.386 269.006 25.468 269.006 24.364C269.006 23.152 269.354 22.204 270.05 21.52C270.758 20.836 271.598 20.494 272.57 20.494C273.566 20.494 274.394 20.86 275.054 21.592C275.714 22.324 276.044 23.266 276.044 24.418ZM269.816 23.734H275.288C275.192 22.99 274.892 22.378 274.388 21.898C273.896 21.418 273.29 21.178 272.57 21.178C271.838 21.178 271.22 21.424 270.716 21.916C270.212 22.396 269.912 23.002 269.816 23.734ZM278.895 26.686V32.14H278.175V20.656H278.895V21.934C279.603 20.974 280.563 20.494 281.775 20.494C282.855 20.494 283.719 20.854 284.367 21.574C285.015 22.282 285.339 23.182 285.339 24.274C285.339 25.39 285.009 26.326 284.349 27.082C283.701 27.826 282.831 28.198 281.739 28.198C281.187 28.198 280.689 28.09 280.245 27.874C279.801 27.646 279.495 27.442 279.327 27.262C279.159 27.07 279.015 26.878 278.895 26.686ZM279.615 26.596C280.119 27.208 280.821 27.514 281.721 27.514C282.621 27.514 283.323 27.208 283.827 26.596C284.331 25.984 284.583 25.21 284.583 24.274C284.583 23.302 284.307 22.546 283.755 22.006C283.203 21.454 282.531 21.178 281.739 21.178C280.959 21.178 280.281 21.448 279.705 21.988C279.141 22.528 278.859 23.278 278.859 24.238C278.859 25.186 279.111 25.972 279.615 26.596ZM293.342 21.43V22.384C292.646 21.58 291.8 21.178 290.804 21.178C289.916 21.178 289.184 21.484 288.608 22.096C288.032 22.696 287.744 23.452 287.744 24.364C287.744 25.348 288.05 26.122 288.662 26.686C289.274 27.238 289.976 27.514 290.768 27.514C291.74 27.514 292.628 27.076 293.432 26.2V27.172C292.664 27.856 291.77 28.198 290.75 28.198C289.646 28.198 288.74 27.838 288.032 27.118C287.336 26.386 286.988 25.474 286.988 24.382C286.988 23.266 287.336 22.342 288.032 21.61C288.728 20.866 289.652 20.494 290.804 20.494C291.752 20.494 292.598 20.806 293.342 21.43ZM295.419 20.656H296.139V24.148L299.847 20.656H300.819L297.075 24.148L301.107 28H300.063L296.535 24.634L296.139 25.012V28H295.419V20.656ZM308.145 21.934V20.656H308.865V28H308.145V26.686C307.485 27.694 306.531 28.198 305.283 28.198C304.287 28.198 303.441 27.844 302.745 27.136C302.049 26.428 301.701 25.492 301.701 24.328C301.701 23.188 302.031 22.264 302.691 21.556C303.351 20.848 304.215 20.494 305.283 20.494C306.507 20.494 307.461 20.974 308.145 21.934ZM305.319 21.178C304.539 21.178 303.867 21.46 303.303 22.024C302.739 22.576 302.457 23.326 302.457 24.274C302.457 25.15 302.715 25.912 303.231 26.56C303.747 27.196 304.449 27.514 305.337 27.514C306.213 27.514 306.903 27.202 307.407 26.578C307.923 25.942 308.181 25.174 308.181 24.274C308.181 23.278 307.887 22.516 307.299 21.988C306.711 21.448 306.051 21.178 305.319 21.178ZM310.658 28L312.998 24.796C312.434 24.772 311.954 24.592 311.558 24.256C311.15 23.896 310.946 23.41 310.946 22.798C310.946 22.09 311.168 21.55 311.612 21.178C312.008 20.83 312.59 20.656 313.358 20.656H315.806V28H315.086V24.832H313.826L311.522 28H310.658ZM315.086 24.148V21.34H313.358C312.854 21.34 312.464 21.448 312.188 21.664C311.864 21.94 311.702 22.312 311.702 22.78C311.702 23.236 311.858 23.584 312.17 23.824C312.458 24.04 312.854 24.148 313.358 24.148H315.086ZM317.782 30.466L318.862 26.83L319.582 27.046L318.25 30.646L317.782 30.466ZM333.873 28H326.475L331.083 22.924C331.719 22.204 332.157 21.664 332.397 21.304C332.865 20.584 333.099 19.9 333.099 19.252C333.099 18.484 332.835 17.842 332.307 17.326C331.791 16.81 331.125 16.552 330.309 16.552C329.445 16.552 328.755 16.846 328.239 17.434C327.771 17.95 327.537 18.604 327.537 19.396H326.745C326.745 18.376 327.063 17.536 327.699 16.876C328.371 16.18 329.259 15.832 330.363 15.832C331.395 15.832 332.247 16.162 332.919 16.822C333.591 17.47 333.927 18.28 333.927 19.252C333.927 20.104 333.639 20.926 333.063 21.718C332.787 22.102 332.433 22.534 332.001 23.014L328.149 27.28H333.873V28ZM341.829 15.598V24.994H343.503V25.714H341.829V28H341.037V25.714H334.575L341.829 15.598ZM335.979 24.994H341.037V17.938L335.979 24.994Z" fill="white"/>
</svg>
